<svg width="24" height="24" viewBox="0 0 24 24" fill="none" xmlns="http://www.w3.org/2000/svg">
<path d="M11.9608 13.399C15.5076 13.399 18.3844 10.5221 18.3844 6.97537C18.3844 3.4286 15.5075 0.571411 11.9608 0.571411C8.41397 0.571411 5.53711 3.44828 5.53711 6.97537C5.53711 10.5025 8.41393 13.399 11.9608 13.399ZM11.9608 2.2463C14.5617 2.2463 16.6898 4.37436 16.6898 6.97537C16.6898 9.57638 14.5617 11.7044 11.9608 11.7044C9.35978 11.7044 7.23167 9.57634 7.23167 6.97533C7.23167 4.37432 9.35974 2.2463 11.9608 2.2463Z" fill="#6E798C"/>
<path d="M0.847282 23.4285H23.1527C23.6256 23.4285 24 23.0542 24 22.5812C24 18.1477 20.3941 14.5221 15.9409 14.5221H8.05912C3.62562 14.5221 0 18.128 0 22.5812C0 23.0542 0.374378 23.4285 0.847282 23.4285ZM8.05912 16.2167H15.9409C19.1724 16.2167 21.8325 18.6206 22.2463 21.7339H1.75369C2.16747 18.6404 4.8276 16.2167 8.05912 16.2167Z" fill="#6E798C"/>
</svg>
