<svg width="6" height="16" viewBox="0 0 6 16" fill="none" xmlns="http://www.w3.org/2000/svg">
<path d="M3.08 3.944C2.58133 3.944 2.156 3.79 1.804 3.482C1.46667 3.15933 1.298 2.756 1.298 2.272C1.298 1.77333 1.46667 1.37 1.804 1.062C2.156 0.753999 2.58133 0.599999 3.08 0.599999C3.57867 0.599999 3.99667 0.753999 4.334 1.062C4.67133 1.37 4.84 1.77333 4.84 2.272C4.84 2.756 4.67133 3.15933 4.334 3.482C3.99667 3.79 3.57867 3.944 3.08 3.944ZM0.484 16V15.78L0.792 15.692C1.08533 15.604 1.28333 15.472 1.386 15.296C1.50333 15.12 1.562 14.8853 1.562 14.592V7.706C1.562 7.398 1.50333 7.17067 1.386 7.024C1.28333 6.86267 1.08533 6.75267 0.792 6.694L0.484 6.628V6.408L4.51 5.11L4.73 5.33L4.664 8.454V14.614C4.664 14.9073 4.71533 15.142 4.818 15.318C4.93533 15.494 5.13333 15.626 5.412 15.714L5.632 15.78V16H0.484Z" fill="white"/>
</svg>
